<?xml version="1.0" encoding="utf-8"?>
<!-- Generator: Adobe Illustrator 26.3.1, SVG Export Plug-In . SVG Version: 6.00 Build 0)  -->
<svg version="1.1" id="visual" xmlns="http://www.w3.org/2000/svg" xmlns:xlink="http://www.w3.org/1999/xlink" x="0px" y="0px"
	 viewBox="0 0 900 600" style="enable-background:new 0 0 900 600;" xml:space="preserve">
<style type="text/css">
	.st0{fill:#F7CACA;}
	.st1{fill:#796479;}
	.st2{fill:#001122;}
</style>
<path class="st0" d="M0,389l21.5,6.7c21.5,6.6,64.5,20,107.3,19.1c42.9-0.8,85.5-15.8,128.4-16.1c42.8-0.4,85.8,14,128.6,29.5
	c42.9,15.5,85.5,32.1,128.4,30.5c42.8-1.7,85.8-21.7,128.6-25c42.9-3.4,85.5,10,128.4,11.5c42.8,1.5,85.8-8.9,107.3-14L900,426v175
	h-21.5c-21.5,0-64.5,0-107.3,0c-42.9,0-85.5,0-128.4,0c-42.8,0-85.8,0-128.6,0c-42.9,0-85.5,0-128.4,0c-42.8,0-85.8,0-128.6,0
	c-42.9,0-85.5,0-128.4,0c-42.8,0-85.8,0-107.3,0H0V389z"/>
<path class="st1" d="M0,464l21.5,2.8c21.5,2.9,64.5,8.5,107.3,8.5c42.9,0,85.5-5.6,128.4-8.8c42.8-3.2,85.8-3.8,128.6-7.5
	c42.9-3.7,85.5-10.3,128.4-3.3c42.8,7,85.8,27.6,128.6,26.8c42.9-0.8,85.5-23.2,128.4-31.8c42.8-8.7,85.8-3.7,107.3-1.2L900,452v149
	h-21.5c-21.5,0-64.5,0-107.3,0c-42.9,0-85.5,0-128.4,0c-42.8,0-85.8,0-128.6,0c-42.9,0-85.5,0-128.4,0c-42.8,0-85.8,0-128.6,0
	c-42.9,0-85.5,0-128.4,0c-42.8,0-85.8,0-107.3,0H0V464z"/>
<image style="overflow:visible;" width="1524" height="1327" xlink:href="../../../../../Downloads/profile_bd0fzy.png"  transform="matrix(0.1712 0 0 0.1667 623 328)">
</image>
<path class="st2" d="M0,521l21.5,1.3c21.5,1.4,64.5,4,107.3,5.9c42.9,1.8,85.5,2.8,128.4,5.6c42.8,2.9,85.8,7.5,128.6,7.2
	c42.9-0.3,85.5-5.7,128.4-11.7c42.8-6,85.8-12.6,128.6-17.3c42.9-4.7,85.5-7.3,128.4-6.2c42.8,1.2,85.8,6.2,107.3,8.7L900,517v84
	h-21.5c-21.5,0-64.5,0-107.3,0c-42.9,0-85.5,0-128.4,0c-42.8,0-85.8,0-128.6,0c-42.9,0-85.5,0-128.4,0c-42.8,0-85.8,0-128.6,0
	c-42.9,0-85.5,0-128.4,0c-42.8,0-85.8,0-107.3,0H0V521z"/>
</svg>
